<svg xmlns="http://www.w3.org/2000/svg" viewBox="0 0 74.5 73.03"><defs><style>.cls-1{fill:#cad2dc;}.cls-2{fill:#fff;}</style></defs><title>Recurso 443</title><g id="Capa_2" data-name="Capa 2"><g id="Capa_1-2" data-name="Capa 1"><rect class="cls-1" width="74.5" height="73.03" rx="16.46"/><path class="cls-2" d="M56,17.76a8.58,8.58,0,0,0-12.11,0L19.65,42a2,2,0,0,0-.56,1l-3,12.12a2.13,2.13,0,0,0,2.58,2.58l12.13-3a2.18,2.18,0,0,0,1-.56L56,29.86a8.55,8.55,0,0,0,0-12.1Zm-25,28L46.92,29.85l1.54,1.54L31.55,48.31Zm-3-3-2.57-.51L42.37,25.3l1.55,1.55ZM22.72,46l4.2.83.84,4.21L21,52.73ZM45.38,22.3l1.53-1.53a4.4,4.4,0,0,1,6.09,0h0a4.4,4.4,0,0,1,0,6.09l-1.52,1.53Z"/></g></g></svg>